<svg width="53" height="52" viewBox="0 0 53 52" fill="none" xmlns="http://www.w3.org/2000/svg">
<path d="M10.7739 0.5H41.5481C47.2322 0.5 51.8219 5.00904 51.8219 10.5492V40.6815C51.8219 46.2216 47.2322 50.7307 41.5481 50.7307H10.7739C5.08978 50.7307 0.5 46.2216 0.5 40.6815V10.5492C0.5 5.00904 5.08978 0.5 10.7739 0.5Z" fill="#FCF2ED" stroke="#1D284A"/>
<path d="M15.2288 10.1424V10.141H14.7288C12.3341 10.141 10.3681 12.0511 10.3681 14.4212V36.8095C10.3681 39.1797 12.3341 41.0897 14.7288 41.0897H37.594C39.9887 41.0897 41.9547 39.1797 41.9547 36.8095V14.4226C41.9547 12.0524 39.9887 10.1424 37.594 10.1424H15.2288ZM37.594 41.9308H14.7288C11.8297 41.9308 9.48926 39.6242 9.48926 36.8109V14.4226C9.48926 11.6093 11.8297 9.30273 14.7288 9.30273H37.594C40.4932 9.30273 42.8336 11.6093 42.8336 14.4226V36.8109C42.8336 39.6242 40.4932 41.9308 37.594 41.9308Z" fill="#1D284A" stroke="#1D284A"/>
<path d="M26.1616 33.7443C23.9367 33.7443 21.851 32.8968 20.281 31.3595C18.7114 29.8226 17.8499 27.7839 17.8499 25.6163C17.8499 23.4486 18.7114 21.4099 20.281 19.873C21.8509 18.3358 23.9381 17.4883 26.1616 17.4883C28.3851 17.4883 30.4723 18.3358 32.0423 19.873C33.6119 21.4099 34.4734 23.4486 34.4734 25.6163C34.4734 27.7839 33.6119 29.8226 32.0423 31.3595C30.4723 32.8967 28.3851 33.7443 26.1616 33.7443ZM26.1616 18.328C22.0729 18.328 18.7287 21.5874 18.7287 25.6163C18.7287 29.6452 22.0729 32.9046 26.1616 32.9046C30.2504 32.9046 33.5945 29.6452 33.5945 25.6163C33.5945 21.5874 30.2504 18.328 26.1616 18.328Z" fill="#1D284A" stroke="#1D284A"/>
<path d="M37.3667 12.3477C38.0154 12.4976 38.402 13.128 38.2542 13.7411C38.1064 14.3542 37.4727 14.7488 36.824 14.5989C36.1753 14.449 35.7887 13.8185 35.9365 13.2055C36.0842 12.5924 36.7179 12.1977 37.3667 12.3477Z" fill="#1D284A" stroke="#1D284A"/>
</svg>
