<svg width="53" height="52" viewBox="0 0 53 52" fill="none" xmlns="http://www.w3.org/2000/svg">
<path d="M10.9765 0.5H41.7507C47.4348 0.5 52.0246 5.00904 52.0246 10.5492V40.6815C52.0246 46.2216 47.4348 50.7307 41.7507 50.7307H10.9765C5.29242 50.7307 0.702637 46.2216 0.702637 40.6815V10.5492C0.702637 5.00904 5.29242 0.5 10.9765 0.5Z" fill="#FCF2ED" stroke="#1D284A"/>
<path d="M12.7092 39.3224V21.2061H17.8325V39.3224H12.7092Z" fill="#1D284A" stroke="#1D284A"/>
<path d="M34.8569 20.7823L34.8303 20.7795C34.6096 20.7557 34.3838 20.7387 34.1543 20.7294L34.8569 20.7823ZM34.8569 20.7823H34.8585M34.8569 20.7823H34.8585M34.8585 20.7823C36.7018 20.9821 38.0953 21.6703 39.0329 22.7641C39.9776 23.866 40.5084 25.4366 40.5084 27.485V39.4539H35.3851V28.8095C35.3851 28.6366 35.3636 27.7132 34.8577 26.8169C34.3283 25.8788 33.2984 25.0293 31.4236 25.0293C30.126 25.0293 28.9286 25.5998 28.2643 26.7781L28.2641 26.7785C27.6086 27.9433 27.6237 29.2907 27.6364 30.4355C27.6382 30.5894 27.6398 30.7397 27.6398 30.8853V39.3669H22.5166V21.2505H27.3732V23.3084V25.0957L28.3001 23.5688L28.3001 23.5687L28.3001 23.5687L28.3003 23.5684L28.3005 23.5682L28.3015 23.5665L28.3105 23.5523C28.3192 23.5387 28.3333 23.5172 28.3528 23.4886C28.3917 23.4317 28.4519 23.347 28.5334 23.2425C29.1544 22.4539 30.9554 20.6019 34.1542 20.7294L34.8585 20.7823Z" fill="#1D284A" stroke="#1D284A"/>
<path d="M15.9623 11.8548C17.6103 12.2356 18.6158 13.8465 18.2322 15.4381C17.8486 17.0296 16.2136 18.0302 14.5655 17.6494C12.9175 17.2685 11.912 15.6577 12.2956 14.0661C12.6793 12.4746 14.3143 11.4739 15.9623 11.8548Z" fill="#1D284A" stroke="#1D284A"/>
</svg>
