<svg width="53" height="52" viewBox="0 0 53 52" fill="none" xmlns="http://www.w3.org/2000/svg">
<path d="M11.1769 0.5H41.9512C47.6352 0.5 52.225 5.00904 52.225 10.5492V40.6815C52.225 46.2216 47.6352 50.7307 41.9512 50.7307H11.1769C5.49286 50.7307 0.903076 46.2216 0.903076 40.6815V10.5492C0.903076 5.00904 5.49286 0.5 11.1769 0.5Z" fill="#FCF2ED" stroke="#1D284A"/>
<path d="M12.9276 35.3547C18.0035 39.1734 24.2225 38.6651 29.2939 35.5516C34.4306 32.3979 38.3118 26.61 38.5188 20.1078C38.5345 19.6168 38.6194 19.1793 38.8175 18.7783C39.0162 18.3762 39.3116 18.0454 39.6966 17.7421L39.7334 17.713C40.0701 17.4478 40.3804 17.2032 40.6369 16.9288C40.1391 17.028 39.6045 17.0608 39.0099 16.9282L38.2068 16.7492L38.7357 16.1188C38.9452 15.8691 39.166 15.6368 39.3716 15.4205L39.4008 15.3897C39.6187 15.1603 39.818 14.9489 39.9953 14.7308C40.1141 14.5846 40.2201 14.4388 40.3108 14.2889C40.0275 14.4079 39.756 14.5228 39.4842 14.6407C38.8916 14.8985 38.3085 15.0515 37.6967 15.0078C37.0809 14.9638 36.4893 14.7245 35.8716 14.2898L36.1587 13.8819L35.8716 14.2898C32.3028 11.7782 27.5107 13.7241 26.7654 17.9968L12.9276 35.3547ZM12.9276 35.3547C15.6788 35.2578 18.171 34.4276 20.6095 32.698L21.5977 31.997L20.4027 31.797C19.0511 31.5708 17.9405 31.162 17.049 30.5216C16.3273 30.0032 15.7309 29.3201 15.2651 28.4229C15.2996 28.4231 15.3346 28.4235 15.3702 28.4238C15.4701 28.4248 15.5748 28.4259 15.6871 28.4253C16.0992 28.4229 16.5627 28.3933 17.0687 28.1993L18.2186 27.7583L17.0868 27.2729C15.7486 26.699 14.6886 25.9976 13.9552 25.1022C13.3408 24.3521 12.938 23.4445 12.8079 22.3123C12.905 22.3438 13.0063 22.3793 13.1153 22.4177C13.1823 22.4412 13.2522 22.4658 13.3259 22.4911C13.75 22.6365 14.2538 22.7835 14.8779 22.7398L16.0054 22.6608L15.1886 21.8796C13.9601 20.7048 13.1995 19.5169 12.9169 18.2742C12.6782 17.2246 12.7705 16.0922 13.2701 14.8361C15.8684 17.5821 18.9003 19.4635 22.5472 20.3846C22.5898 20.3955 22.6333 20.4067 22.6776 20.4181C22.8387 20.4597 23.0098 20.5038 23.179 20.5412C23.5017 20.614 23.8343 20.7126 24.1758 20.8139C24.3352 20.8612 24.4966 20.909 24.6598 20.955C24.9066 21.0247 25.1548 21.089 25.3852 21.131C25.6097 21.1718 25.8509 21.1981 26.0732 21.1712L26.0743 21.171C26.248 21.1497 26.4259 21.1014 26.5818 20.9988C26.7483 20.8892 26.8597 20.7373 26.9201 20.5648C27.0233 20.2697 26.9634 19.9356 26.9194 19.7096C26.903 19.6255 26.8853 19.5413 26.8675 19.4567C26.7713 18.9987 26.6727 18.5295 26.7653 17.997L12.9276 35.3547ZM12.3829 35.4222C12.3798 35.4293 12.3728 35.4455 12.3607 35.4668C12.3612 35.4658 12.3618 35.4648 12.3623 35.4638C12.3705 35.449 12.3827 35.4225 12.388 35.4107C12.3868 35.4134 12.3852 35.417 12.3832 35.4217L12.3829 35.4222Z" fill="#1D284A" stroke="#1D284A"/>
</svg>
